<svg width="24" height="24" viewBox="0 0 24 24" fill="none" xmlns="http://www.w3.org/2000/svg">
<rect width="24" height="24" rx="12" fill="white"/>
<path d="M12 5.625C15.8555 5.625 18.9727 8.19531 18.9727 11.3125C18.9727 14.457 15.8555 17 12 17C10.9336 17 9.94922 16.8086 9.04688 16.4805C8.36328 17.0273 7.02344 17.875 5.21875 17.875C5.10938 17.875 5.02734 17.8477 5 17.7656C4.97266 17.6836 4.97266 17.5742 5.05469 17.5195C5.05469 17.4922 6.20312 16.2891 6.53125 14.8945C5.57422 13.9102 5 12.6797 5 11.3125C5 8.19531 8.11719 5.625 12 5.625Z" fill="#1A7FB9"/>
</svg>
