<svg width="24" height="24" viewBox="0 0 24 24" fill="none" xmlns="http://www.w3.org/2000/svg">
<rect width="24" height="24" rx="12" fill="white"/>
<path d="M12 5.625C15.8555 5.625 18.9727 8.19531 18.9727 11.3125C18.9727 14.457 15.8555 17 12 17C11.0977 17 10.2227 16.8633 9.45703 16.6172C8.63672 17.1914 7.32422 17.875 5.65625 17.875C5.38281 17.875 5.13672 17.7383 5.02734 17.4922C4.94531 17.2461 4.97266 16.9727 5.16406 16.7812C5.19141 16.7812 6.03906 15.8516 6.42188 14.7852C5.51953 13.8281 5 12.625 5 11.3125C5 8.19531 8.11719 5.625 12 5.625ZM12 15.6875C15.1172 15.6875 17.6875 13.7461 17.6875 11.3125C17.6875 8.90625 15.1172 6.9375 12 6.9375C8.85547 6.9375 6.3125 8.90625 6.3125 11.3125C6.3125 12.4883 6.88672 13.3633 7.37891 13.8828L7.95312 14.4844L7.65234 15.25C7.51562 15.6328 7.32422 16.0156 7.10547 16.3438C7.76172 16.125 8.30859 15.8242 8.69141 15.5508L9.21094 15.168L9.83984 15.3594C10.5234 15.5781 11.2617 15.6875 12 15.6875Z" fill="#1A7FB9"/>
</svg>
