<svg width="17" height="15" viewBox="0 0 17 15" fill="none" xmlns="http://www.w3.org/2000/svg">
<path d="M16.6562 6.13672C16.9297 6.38281 16.9297 6.79297 16.6836 7.06641L14.1953 9.52734C14.0586 9.66406 13.8945 9.71875 13.7305 9.71875C13.5664 9.71875 13.4023 9.66406 13.2656 9.52734L12.6367 8.92578C12.3906 8.65234 12.3906 8.24219 12.6367 7.99609L12.8008 7.83203L12.2539 7.28516C12.1172 7.3125 12.0078 7.3125 11.8711 7.3125C11.3516 7.3125 10.8594 7.12109 10.4766 6.73828L9.13672 5.39844C8.78125 5.04297 8.5625 4.52344 8.5625 4.00391V3.64844L5.9375 2.33594L6.15625 2.11719C7.03125 1.24219 8.17969 0.75 9.41016 0.75C10.6133 0.75 11.7891 1.24219 12.6367 2.11719L13.8672 3.34766C14.332 3.8125 14.5234 4.46875 14.3867 5.125L14.9336 5.67188L15.0977 5.50781C15.2344 5.39844 15.3984 5.31641 15.5625 5.31641C15.7266 5.31641 15.8906 5.39844 16.0273 5.50781L16.6562 6.13672ZM8.50781 6.02734L9.84766 7.36719C9.92969 7.47656 10.0391 7.55859 10.1758 7.64062L4.46094 14.1758C4.05078 14.5586 3.53125 14.75 3.06641 14.75C2.57422 14.75 2.08203 14.5586 1.67188 14.1758C0.90625 13.4102 0.90625 12.1797 1.69922 11.4141L8.23438 5.67188C8.31641 5.80859 8.42578 5.91797 8.50781 6.02734Z" fill="#4747FF"/>
</svg>
