<svg width="12" height="15" viewBox="0 0 12 15" fill="none" xmlns="http://www.w3.org/2000/svg">
<path d="M10.7305 3.32031C11.0586 3.64844 11.25 4.08594 11.25 4.55078V13C11.25 13.9844 10.457 14.75 9.5 14.75H2.5C1.51562 14.75 0.75 13.9844 0.75 13V2.5C0.75 1.54297 1.51562 0.75 2.5 0.75H7.44922C7.91406 0.75 8.35156 0.941406 8.67969 1.26953L10.7305 3.32031ZM9.9375 13H9.91016V5.125H7.75C7.25781 5.125 6.875 4.74219 6.875 4.25V2.08984H5.5625V2.5H3.8125V2.08984H2.5C2.25391 2.08984 2.0625 2.28125 2.0625 2.52734V13C2.0625 13.2461 2.25391 13.4375 2.5 13.4375H9.5C9.71875 13.4375 9.9375 13.2461 9.9375 13ZM5.5625 3.375V4.25H3.8125V3.375H5.5625ZM5.5625 5.125V6H3.8125V5.125H5.5625ZM5.5625 6.875L6.38281 10.0742C6.60156 11.1406 5.78125 12.125 4.6875 12.125C3.56641 12.125 2.74609 11.1406 2.96484 10.0742L3.8125 6.875H5.5625ZM5.125 10.8125C5.34375 10.8125 5.5625 10.6211 5.5625 10.375C5.5625 10.1562 5.34375 9.9375 5.125 9.9375H4.25C4.00391 9.9375 3.8125 10.1562 3.8125 10.375C3.8125 10.6211 4.00391 10.8125 4.25 10.8125H5.125Z" fill="#B800B5"/>
</svg>
