<svg width="14" height="15" viewBox="0 0 14 15" fill="none" xmlns="http://www.w3.org/2000/svg">
<path d="M14 7.75C14 11.6328 10.8555 14.75 7 14.75C3.11719 14.75 0 11.6328 0 7.75C0 3.89453 3.11719 0.75 7 0.75C10.8555 0.75 14 3.89453 14 7.75ZM2.70703 4.71484C2.10547 5.58984 1.75 6.62891 1.75 7.75C1.75 10.6484 4.07422 13 7 13C8.12109 13 9.16016 12.6445 10.0352 12.043L2.70703 4.71484ZM12.25 7.75C12.25 4.85156 9.89844 2.5 7 2.5C5.85156 2.5 4.8125 2.88281 3.9375 3.48438L11.2656 10.8125C11.8672 9.9375 12.25 8.89844 12.25 7.75Z" fill="#CD0000"/>
</svg>
