<svg width="14" height="14" viewBox="0 0 14 14" fill="none" xmlns="http://www.w3.org/2000/svg">
<path d="M7 14C3.11719 14 0 10.8828 0 7C0 3.14453 3.11719 0 7 0C10.8555 0 14 3.14453 14 7C14 10.8828 10.8555 14 7 14ZM6.34375 7C6.34375 7.21875 6.45312 7.4375 6.61719 7.54688L9.24219 9.29688C9.54297 9.51562 9.95312 9.43359 10.1445 9.13281C10.3633 8.83203 10.2812 8.42188 9.98047 8.20312L7.65625 6.67188V3.28125C7.65625 2.92578 7.35547 2.625 6.97266 2.625C6.61719 2.625 6.31641 2.92578 6.31641 3.28125L6.34375 7Z" fill="#111111"/>
</svg>
