<svg width="15" height="13" viewBox="0 0 15 13" fill="none" xmlns="http://www.w3.org/2000/svg">
<path d="M8 0.625C11.8555 0.625 14.9727 3.19531 14.9727 6.3125C14.9727 9.45703 11.8555 12 8 12C7.09766 12 6.22266 11.8633 5.45703 11.6172C4.63672 12.1914 3.32422 12.875 1.65625 12.875C1.38281 12.875 1.13672 12.7383 1.02734 12.4922C0.945312 12.2461 0.972656 11.9727 1.16406 11.7812C1.19141 11.7812 2.03906 10.8516 2.42188 9.78516C1.51953 8.82812 1 7.625 1 6.3125C1 3.19531 4.11719 0.625 8 0.625ZM8 10.6875C11.1172 10.6875 13.6875 8.74609 13.6875 6.3125C13.6875 3.90625 11.1172 1.9375 8 1.9375C4.85547 1.9375 2.3125 3.90625 2.3125 6.3125C2.3125 7.48828 2.88672 8.36328 3.37891 8.88281L3.95312 9.48438L3.65234 10.25C3.51562 10.6328 3.32422 11.0156 3.10547 11.3438C3.76172 11.125 4.30859 10.8242 4.69141 10.5508L5.21094 10.168L5.83984 10.3594C6.52344 10.5781 7.26172 10.6875 8 10.6875Z" fill="#1A7FB9"/>
</svg>
