<svg width="12" height="15" viewBox="0 0 12 15" fill="none" xmlns="http://www.w3.org/2000/svg">
<path d="M10.7305 3.32031C11.0586 3.64844 11.25 4.08594 11.25 4.55078V13C11.25 13.9844 10.457 14.75 9.5 14.75H2.5C1.51562 14.75 0.75 13.9844 0.75 13V2.5C0.75 1.54297 1.51562 0.75 2.5 0.75H7.44922C7.91406 0.75 8.35156 0.941406 8.67969 1.26953L10.7305 3.32031ZM9.9375 13H9.91016V5.125H7.75C7.25781 5.125 6.875 4.74219 6.875 4.25V2.08984H2.5C2.25391 2.08984 2.0625 2.28125 2.0625 2.52734V13C2.0625 13.2461 2.25391 13.4375 2.5 13.4375H9.5C9.71875 13.4375 9.9375 13.2461 9.9375 13ZM6.62891 8.73438C6.76562 8.73438 6.875 8.81641 6.92969 8.92578L8.95312 11.9883C9.03516 12.0977 9.03516 12.2617 8.98047 12.3711C8.92578 12.5078 8.78906 12.5625 8.65234 12.5625H3.29297C3.15625 12.5625 3.04688 12.5078 2.96484 12.3711C2.91016 12.2617 2.91016 12.0977 2.99219 11.9883L4.27734 10.0742C4.33203 9.96484 4.46875 9.88281 4.57812 9.88281C4.71484 9.88281 4.82422 9.96484 4.90625 10.0742L5.23438 10.5391L6.30078 8.92578C6.38281 8.81641 6.49219 8.73438 6.62891 8.73438ZM4.25 8.625C3.75781 8.625 3.375 8.24219 3.375 7.75C3.375 7.28516 3.75781 6.875 4.25 6.875C4.71484 6.875 5.125 7.28516 5.125 7.75C5.125 8.24219 4.71484 8.625 4.25 8.625Z" fill="#111111"/>
</svg>
