<svg width="47" height="62" viewBox="0 0 47 62" fill="none" xmlns="http://www.w3.org/2000/svg">
<path fill-rule="evenodd" clip-rule="evenodd" d="M0.0581428 46.0538C0.259923 46.3172 0.74942 46.2145 0.74942 46.2145L1.75832 45.6353L13.1664 39.1447C13.1664 39.1447 13.8352 38.8532 14.2948 39.2885C14.8609 39.8135 14.2631 40.6095 14.2631 40.6095L6.79348 50.2799L0.48599 58.4427C0.48599 58.4427 0.00582855 59.1695 0.259922 59.4721C0.538303 59.8215 1.19409 59.6814 1.19409 59.6814L10.3938 53.7233L21.856 46.2911C21.856 46.2911 22.2054 46.0071 22.6239 46.235C23.0779 46.4723 22.8275 47.1692 22.8275 47.1692L15.3542 58.3138L13.5101 61.0696C13.5101 61.0696 13.1477 61.5964 13.342 61.8244C13.4298 61.9327 13.5475 61.9701 13.6484 61.9851C13.8427 62.0187 14.0239 61.9851 14.0239 61.9851L39.9882 45.1626C40.9186 44.6637 41.7649 44.0958 42.5141 43.4493C45.4456 40.9103 46.9365 37.1717 46.9514 32.2244V17.5299C46.9365 13.3729 45.8809 10.066 43.7883 7.61096L46.5236 0.877494C46.5236 0.877494 46.7683 0.279619 46.5236 0.0946545C46.2882 -0.11273 45.8342 0.0853218 45.8342 0.0853218L37.7424 3.6613C35.4668 2.88595 32.7951 2.50294 29.7123 2.50294C24.2755 2.50294 20.0773 3.77901 17.1347 6.3106C14.1715 8.8478 12.675 12.5919 12.6414 17.5299V30.2552L0.704589 44.7086L0.218813 45.299C0.218813 45.299 -0.136164 45.8314 0.0581428 46.0538ZM32 30.0001C32 31.1047 31.1046 32.0001 30.0001 32.0001C28.8955 32.0001 28.0001 31.1047 28.0001 30.0001C28.0001 28.8955 28.8955 28.0001 30.0001 28.0001C31.1046 28.0001 32 28.8955 32 30.0001ZM34.7138 14.0613C33.6993 12.822 32.1168 12.0001 30.0003 12.0001C27.8111 12.0001 25.4225 13.0384 24.2762 14.9867C23.7165 15.939 24.0348 17.1647 24.987 17.7244C26.1197 18.3901 26.949 17.7365 27.8181 17.0515C28.4737 16.5347 29.1519 16.0001 30.0003 16.0001C31.0127 16.0001 32.0002 16.5234 32.0002 17.6492C32.0002 18.5883 31.5624 19.1686 30.6789 19.9462C30.5898 20.0246 30.4805 20.1174 30.3594 20.2202C29.9898 20.534 29.5105 20.9409 29.1609 21.3167C28.6407 21.876 28.0003 22.7635 28.0003 24.0002C28.0003 25.1047 28.8959 26.0001 30.0004 26C31.1049 25.9998 31.762 25.0063 32.3123 24.0487C32.5064 23.7109 32.8192 23.391 33.3216 22.9489C34.438 21.9662 36.0001 20.371 36.0001 17.6492C36.0001 16.6052 35.6645 15.2227 34.7138 14.0613Z" fill="#CBE0EC"/>
</svg>
