<svg width="14" height="15" viewBox="0 0 14 15" fill="none" xmlns="http://www.w3.org/2000/svg">
<path d="M5.46875 5.125C5.82422 5.125 6.125 5.42578 6.125 5.78125V9.71875C6.125 10.1016 5.82422 10.375 5.46875 10.375C5.08594 10.375 4.8125 10.1016 4.8125 9.71875V5.78125C4.8125 5.42578 5.08594 5.125 5.46875 5.125ZM8.53125 5.125C8.88672 5.125 9.1875 5.42578 9.1875 5.78125V9.71875C9.1875 10.1016 8.88672 10.375 8.53125 10.375C8.14844 10.375 7.875 10.1016 7.875 9.71875V5.78125C7.875 5.42578 8.14844 5.125 8.53125 5.125ZM7 0.75C10.8555 0.75 14 3.89453 14 7.75C14 11.6328 10.8555 14.75 7 14.75C3.11719 14.75 0 11.6328 0 7.75C0 3.89453 3.11719 0.75 7 0.75ZM7 13.4375C10.1172 13.4375 12.6875 10.8945 12.6875 7.75C12.6875 4.63281 10.1172 2.0625 7 2.0625C3.85547 2.0625 1.3125 4.63281 1.3125 7.75C1.3125 10.8945 3.85547 13.4375 7 13.4375Z" fill="#0071B7"/>
</svg>
