<svg width="15" height="21" viewBox="0 0 15 21" fill="none" xmlns="http://www.w3.org/2000/svg">
<path d="M12.5 18.625C12.8125 18.625 13.125 18.3516 13.125 18V16.75H15V18C15 19.4062 13.8672 20.5 12.5 20.5H2.5C1.09375 20.5 0 19.4062 0 18V16.75H1.875V18C1.875 18.3516 2.14844 18.625 2.5 18.625H12.5ZM10 6.75C9.29688 6.75 8.75 6.20312 8.75 5.5V2.375H2.5C2.14844 2.375 1.875 2.6875 1.875 3V8H0V3C0 1.63281 1.09375 0.5 2.5 0.5H8.94531C9.60938 0.5 10.2344 0.773438 10.7031 1.24219L14.2578 4.79688C14.7266 5.26562 15 5.89062 15 6.55469V8H13.125V6.75H10ZM3.4375 9.25C4.60938 9.25 5.625 10.2656 5.625 11.4375C5.625 12.6484 4.60938 13.625 3.4375 13.625H3.125V14.875C3.125 15.2266 2.8125 15.5 2.5 15.5C2.14844 15.5 1.875 15.2266 1.875 14.875V9.875C1.875 9.5625 2.14844 9.25 2.5 9.25H3.4375ZM4.375 11.4375C4.375 10.9297 3.94531 10.5 3.4375 10.5H3.125V12.375H3.4375C3.94531 12.375 4.375 11.9844 4.375 11.4375ZM6.25 9.875C6.25 9.5625 6.52344 9.25 6.875 9.25H7.8125C8.82812 9.25 9.6875 10.1094 9.6875 11.125V13.625C9.6875 14.6797 8.82812 15.5 7.8125 15.5H6.875C6.52344 15.5 6.25 15.2266 6.25 14.875V9.875ZM7.5 14.25H7.8125C8.125 14.25 8.4375 13.9766 8.4375 13.625V11.125C8.4375 10.8125 8.125 10.5 7.8125 10.5H7.5V14.25ZM13.125 9.25C13.4375 9.25 13.75 9.5625 13.75 9.875C13.75 10.2266 13.4375 10.5 13.125 10.5H11.875V11.75H13.125C13.4375 11.75 13.75 12.0625 13.75 12.375C13.75 12.7266 13.4375 13 13.125 13H11.875V14.875C11.875 15.2266 11.5625 15.5 11.25 15.5C10.8984 15.5 10.625 15.2266 10.625 14.875V9.875C10.625 9.5625 10.8984 9.25 11.25 9.25H13.125Z" fill="#111111"/>
</svg>
