<svg width="9" height="15" viewBox="0 0 9 15" fill="none" xmlns="http://www.w3.org/2000/svg">
<path d="M5 0.75C5.46484 0.75 5.875 1.16016 5.875 1.625V2.60938C5.90234 2.60938 5.95703 2.63672 5.98438 2.63672C6.28516 2.66406 7.13281 2.82812 7.48828 2.91016C7.95312 3.01953 8.25391 3.51172 8.14453 3.97656C8.00781 4.44141 7.54297 4.71484 7.07812 4.60547C6.80469 4.52344 6.03906 4.41406 5.73828 4.35938C4.86328 4.22266 4.09766 4.30469 3.57812 4.49609C3.08594 4.6875 2.86719 4.96094 2.8125 5.26172C2.75781 5.5625 2.8125 5.72656 2.86719 5.83594C2.92188 5.94531 3.00391 6.05469 3.22266 6.19141C3.66016 6.49219 4.34375 6.68359 5.21875 6.92969H5.30078C6.06641 7.14844 7.02344 7.42188 7.73438 7.88672C8.11719 8.13281 8.47266 8.48828 8.69141 8.95312C8.9375 9.44531 8.96484 9.99219 8.88281 10.5664C8.69141 11.6055 7.95312 12.3164 7.07812 12.6719C6.69531 12.8359 6.28516 12.918 5.875 12.9727V13.875C5.875 14.3672 5.46484 14.75 5 14.75C4.50781 14.75 4.125 14.3672 4.125 13.875V12.9453C4.09766 12.9453 4.09766 12.918 4.07031 12.918C3.41406 12.8359 2.32031 12.5352 1.58203 12.207C1.11719 12.0156 0.925781 11.4961 1.11719 11.0586C1.30859 10.6211 1.82812 10.4023 2.26562 10.6211C2.83984 10.8672 3.79688 11.1133 4.34375 11.1953C5.21875 11.332 5.92969 11.25 6.42188 11.0586C6.88672 10.8672 7.07812 10.5938 7.16016 10.2656C7.21484 9.96484 7.16016 9.80078 7.10547 9.69141C7.05078 9.58203 6.96875 9.47266 6.75 9.33594C6.3125 9.03516 5.62891 8.84375 4.75391 8.59766H4.67188C3.90625 8.37891 2.94922 8.10547 2.23828 7.64062C1.85547 7.39453 1.5 7.03906 1.28125 6.57422C1.03516 6.08203 1.00781 5.53516 1.08984 4.93359C1.30859 3.89453 2.07422 3.21094 2.94922 2.85547C3.30469 2.71875 3.71484 2.63672 4.125 2.58203V1.625C4.125 1.16016 4.50781 0.75 5 0.75Z" fill="#6E6E6E"/>
</svg>
