<svg width="14" height="13" viewBox="0 0 14 13" fill="none" xmlns="http://www.w3.org/2000/svg">
<path d="M5.25 1.9375C5.25 1.22656 5.82422 0.625 6.5625 0.625H7.4375C8.14844 0.625 8.75 1.22656 8.75 1.9375V11.5625C8.75 12.3008 8.14844 12.875 7.4375 12.875H6.5625C5.82422 12.875 5.25 12.3008 5.25 11.5625V1.9375ZM0.875 7.1875C0.875 6.47656 1.44922 5.875 2.1875 5.875H3.0625C3.77344 5.875 4.375 6.47656 4.375 7.1875V11.5625C4.375 12.3008 3.77344 12.875 3.0625 12.875H2.1875C1.44922 12.875 0.875 12.3008 0.875 11.5625V7.1875ZM11.8125 2.375C12.5234 2.375 13.125 2.97656 13.125 3.6875V11.5625C13.125 12.3008 12.5234 12.875 11.8125 12.875H10.9375C10.1992 12.875 9.625 12.3008 9.625 11.5625V3.6875C9.625 2.97656 10.1992 2.375 10.9375 2.375H11.8125Z" fill="#6E6E6E"/>
</svg>
