<svg width="12" height="15" viewBox="0 0 12 15" fill="none" xmlns="http://www.w3.org/2000/svg">
<path d="M10.375 0.75C10.8398 0.75 11.25 1.16016 11.25 1.625C11.25 2.11719 10.8398 2.5 10.375 2.5V2.80078C10.375 3.97656 9.91016 5.09766 9.08984 5.91797L7.23047 7.75L9.08984 9.60938C9.91016 10.4297 10.375 11.5508 10.375 12.6992V13C10.8398 13 11.25 13.4102 11.25 13.875C11.25 14.3672 10.8398 14.75 10.375 14.75H1.625C1.13281 14.75 0.75 14.3672 0.75 13.875C0.75 13.4102 1.13281 13 1.625 13V12.6992C1.625 11.5508 2.0625 10.4297 2.88281 9.60938L4.74219 7.75L2.88281 5.91797C2.0625 5.09766 1.625 3.97656 1.625 2.80078V2.5C1.13281 2.5 0.75 2.11719 0.75 1.625C0.75 1.16016 1.13281 0.75 1.625 0.75H10.375ZM3.78516 4.25H8.1875C8.46094 3.83984 8.625 3.32031 8.625 2.80078V2.5H3.375V2.80078C3.375 3.32031 3.51172 3.83984 3.78516 4.25ZM3.78516 11.25H8.1875C8.07812 11.1133 7.96875 10.9766 7.83203 10.8672L6 9.00781L4.14062 10.8672C4.00391 10.9766 3.89453 11.1133 3.78516 11.25Z" fill="#007500"/>
</svg>
