<svg width="14" height="15" viewBox="0 0 14 15" fill="none" xmlns="http://www.w3.org/2000/svg">
<path d="M3.0625 6V4.6875C3.0625 2.52734 4.8125 0.75 7 0.75C9.16016 0.75 10.9375 2.52734 10.9375 4.6875V6H11.375C12.332 6 13.125 6.79297 13.125 7.75V13C13.125 13.9844 12.332 14.75 11.375 14.75H2.625C1.64062 14.75 0.875 13.9844 0.875 13V7.75C0.875 6.79297 1.64062 6 2.625 6H3.0625ZM4.8125 6H9.1875V4.6875C9.1875 3.48438 8.20312 2.5 7 2.5C5.76953 2.5 4.8125 3.48438 4.8125 4.6875V6Z" fill="#6E6E6E"/>
</svg>
