<svg width="14" height="14" viewBox="0 0 14 14" fill="none" xmlns="http://www.w3.org/2000/svg">
<path d="M6.80859 0.460938C7.13672 0.105469 7.71094 0.105469 8.03906 0.460938C8.39453 0.789062 8.39453 1.36328 8.03906 1.69141L7.35547 2.375H11.375C12.8242 2.375 14 3.55078 14 5V5.875C14 6.36719 13.5898 6.75 13.125 6.75C12.6328 6.75 12.25 6.36719 12.25 5.875V5C12.25 4.53516 11.8398 4.125 11.375 4.125H7.35547L8.03906 4.83594C8.39453 5.16406 8.39453 5.73828 8.03906 6.06641C7.71094 6.42188 7.13672 6.42188 6.80859 6.06641L4.62109 3.87891C4.26562 3.55078 4.26562 2.97656 4.62109 2.64844L6.80859 0.460938ZM9.35156 9.64844C9.70703 9.97656 9.70703 10.5508 9.35156 10.8789L7.16406 13.0664C6.83594 13.4219 6.26172 13.4219 5.93359 13.0664C5.57812 12.7383 5.57812 12.1641 5.93359 11.8359L6.61719 11.125H2.625C2.13281 11.125 1.75 11.5352 1.75 12V12.875C1.75 13.3672 1.33984 13.75 0.875 13.75C0.382812 13.75 0 13.3672 0 12.875V12C0 10.5508 1.14844 9.375 2.625 9.375H6.61719L5.93359 8.69141C5.57812 8.36328 5.57812 7.78906 5.93359 7.46094C6.26172 7.10547 6.83594 7.10547 7.16406 7.46094L9.35156 9.64844ZM14 10.25C14 11.2344 13.207 12 12.25 12C11.2656 12 10.5 11.2344 10.5 10.25C10.5 9.29297 11.2656 8.5 12.25 8.5C13.207 8.5 14 9.29297 14 10.25ZM3.5 3.25C3.5 4.23438 2.70703 5 1.75 5C0.765625 5 0 4.23438 0 3.25C0 2.29297 0.765625 1.5 1.75 1.5C2.70703 1.5 3.5 2.29297 3.5 3.25Z" fill="#6E6E6E"/>
</svg>
