<svg width="15" height="21" viewBox="0 0 15 21" fill="none" xmlns="http://www.w3.org/2000/svg">
<path d="M14.2578 4.17188C14.7266 4.64062 15 5.26562 15 5.92969V18C15 19.4062 13.8672 20.5 12.5 20.5H2.5C1.09375 20.5 0 19.4062 0 18V3C0 1.63281 1.09375 0.5 2.5 0.5H9.57031C10.2344 0.5 10.8594 0.773438 11.3281 1.24219L14.2578 4.17188ZM13.125 18H13.0859V6.75H10C9.29688 6.75 8.75 6.20312 8.75 5.5V2.41406H2.5C2.14844 2.41406 1.875 2.6875 1.875 3.03906V18C1.875 18.3516 2.14844 18.625 2.5 18.625H12.5C12.8125 18.625 13.125 18.3516 13.125 18ZM8.35938 10.1875L9.33594 12.9609L10.3516 9.91406C10.5078 9.40625 11.0156 9.17188 11.5234 9.32812C12.0312 9.48438 12.2656 9.99219 12.1094 10.5L10.2344 16.125C10.1172 16.5156 9.76562 16.75 9.375 16.75C8.94531 16.75 8.59375 16.5156 8.47656 16.125L7.5 13.3516L6.48438 16.125C6.36719 16.5156 5.97656 16.75 5.58594 16.75C5.19531 16.75 4.84375 16.5156 4.72656 16.125L2.85156 10.5C2.69531 9.99219 2.92969 9.48438 3.4375 9.32812C3.94531 9.17188 4.45312 9.40625 4.60938 9.91406L5.625 12.9609L6.60156 10.1875C6.71875 9.83594 7.07031 9.5625 7.5 9.5625C7.89062 9.5625 8.24219 9.83594 8.35938 10.1875Z" fill="#111111"/>
</svg>
