<svg width="12" height="15" viewBox="0 0 12 15" fill="none" xmlns="http://www.w3.org/2000/svg">
<path d="M10.7305 3.32031C11.0586 3.64844 11.25 4.08594 11.25 4.55078V13C11.25 13.9844 10.457 14.75 9.5 14.75H2.5C1.51562 14.75 0.75 13.9844 0.75 13V2.5C0.75 1.54297 1.51562 0.75 2.5 0.75H7.44922C7.91406 0.75 8.35156 0.941406 8.67969 1.26953L10.7305 3.32031ZM9.9375 13H9.91016V5.125H7.75C7.25781 5.125 6.875 4.74219 6.875 4.25V2.08984H2.5C2.25391 2.08984 2.0625 2.28125 2.0625 2.52734V13C2.0625 13.2461 2.25391 13.4375 2.5 13.4375H9.5C9.71875 13.4375 9.9375 13.2461 9.9375 13ZM7.01172 7.14844C7.23047 6.84766 7.64062 6.79297 7.91406 7.03906C8.21484 7.25781 8.26953 7.66797 8.02344 7.94141L6.82031 9.5L8.02344 11.0859C8.26953 11.3594 8.21484 11.7695 7.91406 11.9883C7.80469 12.0977 7.66797 12.125 7.53125 12.125C7.3125 12.125 7.12109 12.043 7.01172 11.8789L6 10.5938L4.96094 11.8789C4.82422 12.043 4.63281 12.125 4.44141 12.125C4.30469 12.125 4.16797 12.0977 4.05859 11.9883C3.75781 11.7695 3.70312 11.3594 3.94922 11.0859L5.15234 9.5L3.94922 7.94141C3.70312 7.66797 3.75781 7.25781 4.05859 7.03906C4.33203 6.79297 4.74219 6.84766 4.96094 7.14844L6 8.43359L7.01172 7.14844Z" fill="#111111"/>
</svg>
