<svg width="144" height="27" viewBox="0 0 144 27" fill="none" xmlns="http://www.w3.org/2000/svg">
<g clip-path="url(#clip0_1_394)">
<path d="M88.8597 5.7243C89.5345 5.09602 89.8719 4.29322 89.8719 3.3159C89.8719 2.36185 89.5345 1.57069 88.8597 0.942415C88.2082 0.314138 87.417 0 86.4862 0C85.5555 0 84.7527 0.314138 84.0778 0.942415C83.4263 1.57069 83.1005 2.36185 83.1005 3.3159C83.1005 4.29322 83.4263 5.09602 84.0778 5.7243C84.7527 6.35257 85.5555 6.66671 86.4862 6.66671C87.417 6.66671 88.2082 6.35257 88.8597 5.7243Z" fill="#D21949"/>
<path d="M89.3833 26.3178C89.4764 26.2247 89.5229 26.0386 89.5229 25.7593V8.83078C89.5229 8.55154 89.4764 8.36539 89.3833 8.27231C89.3135 8.17923 89.0808 8.13269 88.6852 8.13269H84.0429C83.5077 8.13269 83.2401 8.36539 83.2401 8.83078V25.7593C83.2401 26.2247 83.5077 26.4574 84.0429 26.4574H88.6852C89.0808 26.4574 89.3135 26.4109 89.3833 26.3178Z" fill="#D21949"/>
<path d="M80.3224 7.57422C80.811 7.57422 81.0554 7.30663 81.0554 6.77143V2.86215C81.0554 2.46657 80.9972 2.23387 80.8808 2.16406C80.7878 2.07099 80.6016 2.02445 80.3224 2.02445H61.9278C61.6486 2.02445 61.4508 2.07099 61.3344 2.16406C61.2414 2.23387 61.1948 2.46657 61.1948 2.86215V6.77143C61.1948 7.30663 61.4392 7.57422 61.9278 7.57422H67.7568V25.7244C67.7568 26.2131 68.0244 26.4574 68.5596 26.4574H73.516C73.9116 26.4574 74.1443 26.4109 74.2141 26.3178C74.3072 26.2015 74.3537 26.0037 74.3537 25.7244V7.57422H80.3224Z" fill="#D21949"/>
<path d="M60.5739 17.6616C60.5739 18.1968 60.3412 18.4644 59.8758 18.4644H50.4517C49.9863 18.4644 49.7536 18.1968 49.7536 17.6616V14.206C49.7536 13.8104 49.8001 13.5778 49.8932 13.5079C49.9863 13.4149 50.1724 13.3683 50.4517 13.3683H59.8758C60.1551 13.3683 60.3412 13.4149 60.4343 13.5079C60.5274 13.5778 60.5739 13.8104 60.5739 14.206V17.6616Z" fill="#D21949"/>
<path d="M100.753 26.3178C100.846 26.2247 100.893 26.0386 100.893 25.7593V12.8099C101.195 12.7633 101.498 12.7284 101.8 12.7052C102.126 12.6819 102.394 12.6702 102.603 12.6702C103.86 12.6702 104.698 12.9727 105.116 13.5778C105.559 14.1595 105.78 15.0437 105.78 16.2305V25.7593C105.78 26.2247 106.047 26.4574 106.582 26.4574H111.294C111.69 26.4574 111.923 26.4109 111.993 26.3178C112.086 26.2247 112.132 26.0386 112.132 25.7593V16.6493C112.132 15.3928 112.004 14.2526 111.748 13.2287C111.888 13.1822 112.062 13.1356 112.272 13.0891C112.481 13.0426 112.691 13.0077 112.9 12.9844C113.133 12.9378 113.354 12.9146 113.563 12.9146C113.773 12.8913 113.936 12.8797 114.052 12.8797C114.703 12.8797 115.239 12.9727 115.657 13.1589C116.076 13.3451 116.402 13.6127 116.635 13.9617C116.867 14.3107 117.019 14.7412 117.089 15.2532C117.182 15.7651 117.228 16.3352 117.228 16.9635V25.7593C117.228 26.2247 117.496 26.4574 118.031 26.4574H122.673C123.069 26.4574 123.302 26.4109 123.371 26.3178C123.464 26.2247 123.511 26.0386 123.511 25.7593V16.2654C123.511 14.9856 123.336 13.8221 122.987 12.775C122.662 11.7046 122.138 10.7854 121.417 10.0175C120.719 9.24963 119.799 8.65626 118.659 8.2374C117.542 7.79528 116.193 7.57422 114.61 7.57422C114.145 7.57422 113.645 7.60913 113.109 7.67894C112.574 7.74874 112.051 7.85346 111.539 7.99307C111.027 8.13269 110.538 8.30721 110.073 8.51664C109.607 8.7028 109.2 8.91222 108.851 9.14492C108.013 8.60972 107.024 8.22577 105.884 7.99307C104.744 7.73711 103.453 7.60913 102.01 7.60913C101.614 7.60913 101.149 7.62076 100.614 7.64403C100.079 7.6673 99.5433 7.70221 99.0081 7.74875C98.4962 7.77202 98.0075 7.81855 97.5422 7.88836C97.1 7.9349 96.7626 7.98144 96.5299 8.02798C95.7155 8.21414 95.1919 8.53991 94.9592 9.0053C94.7265 9.44742 94.6102 10.0408 94.6102 10.7854V25.7593C94.6102 26.2247 94.8778 26.4574 95.413 26.4574H100.055C100.451 26.4574 100.684 26.4109 100.753 26.3178Z" fill="#D21949"/>
<path fill-rule="evenodd" clip-rule="evenodd" d="M141.836 9.63358C140.393 8.28394 138.276 7.60913 135.483 7.60913C132.575 7.60913 130.341 8.45847 128.782 10.1571C127.246 11.8558 126.478 14.2526 126.478 17.3474C126.478 20.6051 127.199 23.0019 128.642 24.5377C130.108 26.0735 132.482 26.8414 135.763 26.8414C136.251 26.8414 136.786 26.8065 137.368 26.7367C137.973 26.6669 138.567 26.5621 139.148 26.4225C139.753 26.2596 140.323 26.0735 140.859 25.8641C141.417 25.6314 141.906 25.3754 142.325 25.0962C142.511 24.9798 142.639 24.8635 142.709 24.7471C142.778 24.6308 142.767 24.4563 142.674 24.2236L141.382 21.0473C141.289 20.8611 141.184 20.7448 141.068 20.6982C140.952 20.6517 140.731 20.6866 140.405 20.8029C139.707 21.0356 139.02 21.2218 138.346 21.3614C137.694 21.4778 137.066 21.5359 136.461 21.5359C135.972 21.5359 135.53 21.5127 135.134 21.4661C134.739 21.3963 134.39 21.2683 134.087 21.0822C133.808 20.896 133.587 20.6401 133.424 20.3143C133.261 19.9652 133.168 19.5231 133.145 18.9879H141.627C142.511 18.9879 143.127 18.7436 143.476 18.2549C143.825 17.7663 144 16.9169 144 15.7069C144 13.0077 143.279 10.9832 141.836 9.63358ZM134.052 13.4032C134.564 12.9844 135.111 12.775 135.693 12.775C136.507 12.775 137.054 13.0193 137.333 13.5079C137.636 13.9733 137.81 14.5783 137.857 15.323H133.18C133.273 14.4387 133.564 13.7988 134.052 13.4032Z" fill="#D21949"/>
<path d="M35.7769 12.6702C35.5675 12.6702 35.2766 12.6819 34.9043 12.7051C34.532 12.7284 34.1945 12.7633 33.892 12.8098V25.7593C33.892 26.0385 33.8455 26.2247 33.7524 26.3178C33.6826 26.4109 33.4499 26.4574 33.0543 26.4574H28.4121C27.8769 26.4574 27.6093 26.2247 27.6093 25.7593V10.7854C27.6093 10.0408 27.7256 9.44739 27.9583 9.00527C28.191 8.53988 28.7146 8.21411 29.529 8.02795C29.7617 7.98141 30.1108 7.93488 30.5761 7.88834C31.0415 7.81853 31.5418 7.77199 32.077 7.74872C32.6355 7.70218 33.194 7.66728 33.7524 7.64401C34.3109 7.62074 34.7879 7.6091 35.1835 7.6091C36.8822 7.6091 38.3714 7.77199 39.6512 8.09776C40.9311 8.40026 41.9898 8.92383 42.8275 9.66845C43.6885 10.3898 44.3284 11.3439 44.7473 12.5306C45.1661 13.6941 45.3755 15.1252 45.3755 16.8238V25.7593C45.3755 26.0385 45.329 26.2247 45.2359 26.3178C45.1661 26.4109 44.9334 26.4574 44.5378 26.4574H39.8258C39.2906 26.4574 39.023 26.2247 39.023 25.7593V16.2305C39.023 15.0437 38.7903 14.1595 38.3249 13.5777C37.8828 12.9727 37.0334 12.6702 35.7769 12.6702Z" fill="#D21949"/>
<path d="M12.8851 9.67845C12.8851 10.0227 13.1641 10.3028 13.5083 10.3028C13.8516 10.3028 14.1295 10.0227 14.1295 9.67845C14.1295 9.33314 13.8516 9.0552 13.5083 9.0552C13.1641 9.0552 12.8851 9.33314 12.8851 9.67845Z" fill="#D21949"/>
<path fill-rule="evenodd" clip-rule="evenodd" d="M21.3393 23.5714C23.3322 21.3332 24.3287 18.2212 24.3287 14.2354C24.3287 10.3109 23.3016 7.22958 21.2474 4.99141C19.2238 2.72257 16.1885 1.58815 12.1413 1.58815C10.1485 1.58815 8.3855 1.89475 6.8525 2.50795C5.35017 3.09049 4.09311 3.93364 3.08133 5.0374C2.06955 6.14116 1.30305 7.47486 0.781829 9.03852C0.26061 10.6022 0 12.3498 0 14.2814C0 16.213 0.21462 17.9606 0.643859 19.5242C1.10376 21.0879 1.80894 22.4216 2.7594 23.5254C3.74052 24.5985 4.99758 25.4416 6.53057 26.0548C8.06357 26.6373 9.9185 26.9286 12.0954 26.9286C16.2651 26.9286 19.3464 25.8095 21.3393 23.5714ZM4.67431 19.7137C4.67431 19.7137 4.54407 19.7411 4.49038 19.671C4.43868 19.6118 4.53313 19.4701 4.53313 19.4701L4.66239 19.313L7.83851 15.4673V12.0814C7.84745 10.7675 8.24565 9.77125 9.03409 9.09616C9.81705 8.42256 10.9341 8.08302 12.3807 8.08302C13.201 8.08302 13.9119 8.18493 14.5174 8.39124L16.6704 7.43974C16.6704 7.43974 16.7912 7.38705 16.8538 7.44223C16.919 7.49144 16.8538 7.65052 16.8538 7.65052L16.126 9.44216C16.6828 10.0954 16.9637 10.9753 16.9677 12.0814V15.9913C16.9637 17.3076 16.567 18.3024 15.787 18.978C15.5877 19.15 15.3625 19.3011 15.1149 19.4338L8.20638 23.9099C8.20638 23.9099 8.15815 23.9189 8.10645 23.9099C8.07961 23.906 8.04829 23.896 8.02493 23.8672C7.97323 23.8065 8.06967 23.6663 8.06967 23.6663L10.5488 19.9677C10.5488 19.9677 10.6154 19.7823 10.4946 19.7192C10.3833 19.6585 10.2903 19.7341 10.2903 19.7341L4.79263 23.297C4.79263 23.297 4.61814 23.3343 4.54407 23.2413C4.47646 23.1608 4.60422 22.9674 4.60422 22.9674L8.27001 18.2223C8.27001 18.2223 8.42909 18.0106 8.27846 17.8709C8.15617 17.7551 7.9782 17.8326 7.9782 17.8326L4.94276 19.5596L4.67431 19.7137Z" fill="#D21949"/>
</g>
<defs>
<clipPath id="clip0_1_394">
<rect width="144" height="27" fill="white"/>
</clipPath>
</defs>
</svg>
