<svg aria-hidden="true" xmlns="http://www.w3.org/2000/svg" xmlns:xlink="http://www.w3.org/1999/xlink"><symbol viewBox="0 0 17 15" id="active" xmlns="http://www.w3.org/2000/svg">
<path d="M16.6562 6.13672C16.9297 6.38281 16.9297 6.79297 16.6836 7.06641L14.1953 9.52734C14.0586 9.66406 13.8945 9.71875 13.7305 9.71875C13.5664 9.71875 13.4023 9.66406 13.2656 9.52734L12.6367 8.92578C12.3906 8.65234 12.3906 8.24219 12.6367 7.99609L12.8008 7.83203L12.2539 7.28516C12.1172 7.3125 12.0078 7.3125 11.8711 7.3125C11.3516 7.3125 10.8594 7.12109 10.4766 6.73828L9.13672 5.39844C8.78125 5.04297 8.5625 4.52344 8.5625 4.00391V3.64844L5.9375 2.33594L6.15625 2.11719C7.03125 1.24219 8.17969 0.75 9.41016 0.75C10.6133 0.75 11.7891 1.24219 12.6367 2.11719L13.8672 3.34766C14.332 3.8125 14.5234 4.46875 14.3867 5.125L14.9336 5.67188L15.0977 5.50781C15.2344 5.39844 15.3984 5.31641 15.5625 5.31641C15.7266 5.31641 15.8906 5.39844 16.0273 5.50781L16.6562 6.13672ZM8.50781 6.02734L9.84766 7.36719C9.92969 7.47656 10.0391 7.55859 10.1758 7.64062L4.46094 14.1758C4.05078 14.5586 3.53125 14.75 3.06641 14.75C2.57422 14.75 2.08203 14.5586 1.67188 14.1758C0.90625 13.4102 0.90625 12.1797 1.69922 11.4141L8.23438 5.67188C8.31641 5.80859 8.42578 5.91797 8.50781 6.02734Z"/>
</symbol><symbol viewBox="0 0 12 15" id="archived" xmlns="http://www.w3.org/2000/svg">
<path d="M10.7305 3.32031C11.0586 3.64844 11.25 4.08594 11.25 4.55078V13C11.25 13.9844 10.457 14.75 9.5 14.75H2.5C1.51562 14.75 0.75 13.9844 0.75 13V2.5C0.75 1.54297 1.51562 0.75 2.5 0.75H7.44922C7.91406 0.75 8.35156 0.941406 8.67969 1.26953L10.7305 3.32031ZM9.9375 13H9.91016V5.125H7.75C7.25781 5.125 6.875 4.74219 6.875 4.25V2.08984H5.5625V2.5H3.8125V2.08984H2.5C2.25391 2.08984 2.0625 2.28125 2.0625 2.52734V13C2.0625 13.2461 2.25391 13.4375 2.5 13.4375H9.5C9.71875 13.4375 9.9375 13.2461 9.9375 13ZM5.5625 3.375V4.25H3.8125V3.375H5.5625ZM5.5625 5.125V6H3.8125V5.125H5.5625ZM5.5625 6.875L6.38281 10.0742C6.60156 11.1406 5.78125 12.125 4.6875 12.125C3.56641 12.125 2.74609 11.1406 2.96484 10.0742L3.8125 6.875H5.5625ZM5.125 10.8125C5.34375 10.8125 5.5625 10.6211 5.5625 10.375C5.5625 10.1562 5.34375 9.9375 5.125 9.9375H4.25C4.00391 9.9375 3.8125 10.1562 3.8125 10.375C3.8125 10.6211 4.00391 10.8125 4.25 10.8125H5.125Z"/>
</symbol><symbol viewBox="0 0 6 10" id="arrow" xmlns="http://www.w3.org/2000/svg">
<path fill-rule="evenodd" clip-rule="evenodd" d="M5.70711 0.292893C6.09763 0.683418 6.09763 1.31658 5.70711 1.70711L2.41421 5L5.70711 8.29289C6.09763 8.68342 6.09763 9.31658 5.70711 9.70711C5.31658 10.0976 4.68342 10.0976 4.29289 9.70711L0.292893 5.70711C-0.0976312 5.31658 -0.0976312 4.68342 0.292893 4.29289L4.29289 0.292893C4.68342 -0.0976312 5.31658 -0.0976311 5.70711 0.292893Z"/>
</symbol><symbol viewBox="0 0 10 6" id="arrow-down" xmlns="http://www.w3.org/2000/svg">
<path fill-rule="evenodd" clip-rule="evenodd" d="M0.292893 0.292893C0.683417 -0.0976311 1.31658 -0.0976311 1.70711 0.292893L5 3.58579L8.29289 0.292893C8.68342 -0.0976311 9.31658 -0.0976311 9.70711 0.292893C10.0976 0.683417 10.0976 1.31658 9.70711 1.70711L5.70711 5.70711C5.31658 6.09763 4.68342 6.09763 4.29289 5.70711L0.292893 1.70711C-0.0976311 1.31658 -0.0976311 0.683417 0.292893 0.292893Z"/>
</symbol><symbol viewBox="0 0 17 16" id="attention" xmlns="http://www.w3.org/2000/svg">
<path d="M8.5 0C12.9062 0 16.5 3.59375 16.5 8C16.5 12.4375 12.9062 16 8.5 16C4.0625 16 0.5 12.4375 0.5 8C0.5 3.59375 4.0625 0 8.5 0ZM8.5 4C7.9375 4 7.5 4.46875 7.5 5C7.5 5.5625 7.9375 6 8.5 6C9.03125 6 9.5 5.5625 9.5 5C9.5 4.46875 9.03125 4 8.5 4ZM9.75 12C10.1562 12 10.5 11.6875 10.5 11.25C10.5 10.8438 10.1562 10.5 9.75 10.5H9.25V7.75C9.25 7.34375 8.90625 7 8.5 7H7.5C7.0625 7 6.75 7.34375 6.75 7.75C6.75 8.1875 7.0625 8.5 7.5 8.5H7.75V10.5H7.25C6.8125 10.5 6.5 10.8438 6.5 11.25C6.5 11.6875 6.8125 12 7.25 12H9.75Z"/>
</symbol><symbol viewBox="0 0 14 15" id="calendar" xmlns="http://www.w3.org/2000/svg">
<path d="M5.03125 2.5H8.96875V1.40625C8.96875 1.05078 9.24219 0.75 9.625 0.75C9.98047 0.75 10.2812 1.05078 10.2812 1.40625V2.5H11.375C12.332 2.5 13.125 3.29297 13.125 4.25V13C13.125 13.9844 12.332 14.75 11.375 14.75H2.625C1.64062 14.75 0.875 13.9844 0.875 13V4.25C0.875 3.29297 1.64062 2.5 2.625 2.5H3.71875V1.40625C3.71875 1.05078 3.99219 0.75 4.375 0.75C4.73047 0.75 5.03125 1.05078 5.03125 1.40625V2.5ZM2.1875 13C2.1875 13.2461 2.37891 13.4375 2.625 13.4375H11.375C11.5938 13.4375 11.8125 13.2461 11.8125 13V6H2.1875V13Z"/>
</symbol><symbol viewBox="0 0 14 15" id="cancelled" xmlns="http://www.w3.org/2000/svg">
<path d="M14 7.75C14 11.6328 10.8555 14.75 7 14.75C3.11719 14.75 0 11.6328 0 7.75C0 3.89453 3.11719 0.75 7 0.75C10.8555 0.75 14 3.89453 14 7.75ZM2.70703 4.71484C2.10547 5.58984 1.75 6.62891 1.75 7.75C1.75 10.6484 4.07422 13 7 13C8.12109 13 9.16016 12.6445 10.0352 12.043L2.70703 4.71484ZM12.25 7.75C12.25 4.85156 9.89844 2.5 7 2.5C5.85156 2.5 4.8125 2.88281 3.9375 3.48438L11.2656 10.8125C11.8672 9.9375 12.25 8.89844 12.25 7.75Z"/>
</symbol><symbol viewBox="0 0 14 14" id="clock" xmlns="http://www.w3.org/2000/svg">
<path d="M7 14C3.11719 14 0 10.8828 0 7C0 3.14453 3.11719 0 7 0C10.8555 0 14 3.14453 14 7C14 10.8828 10.8555 14 7 14ZM6.34375 7C6.34375 7.21875 6.45312 7.4375 6.61719 7.54688L9.24219 9.29688C9.54297 9.51562 9.95312 9.43359 10.1445 9.13281C10.3633 8.83203 10.2812 8.42188 9.98047 8.20312L7.65625 6.67188V3.28125C7.65625 2.92578 7.35547 2.625 6.97266 2.625C6.61719 2.625 6.31641 2.92578 6.31641 3.28125L6.34375 7Z"/>
</symbol><symbol viewBox="0 0 10 10" id="close" xmlns="http://www.w3.org/2000/svg">
<path fill-rule="evenodd" clip-rule="evenodd" d="M0.292893 9.70711C-0.0976311 9.31658 -0.0976311 8.68342 0.292893 8.29289L3.58579 5L0.292893 1.70711C-0.0976311 1.31658 -0.0976311 0.683417 0.292893 0.292893C0.683417 -0.0976315 1.31658 -0.0976315 1.70711 0.292893L5 3.58579L8.29289 0.292893C8.68342 -0.0976315 9.31658 -0.0976315 9.70711 0.292893C10.0976 0.683417 10.0976 1.31658 9.70711 1.70711L6.41421 5L9.70711 8.29289C10.0976 8.68342 10.0976 9.31658 9.70711 9.70711C9.31658 10.0976 8.68342 10.0976 8.29289 9.70711L5 6.41421L1.70711 9.70711C1.31658 10.0976 0.683417 10.0976 0.292893 9.70711Z"/>
</symbol><symbol viewBox="0 0 12 15" id="invoiced" xmlns="http://www.w3.org/2000/svg">
<path d="M1.10547 0.832031C1.35156 0.722656 1.625 0.75 1.81641 0.914062L2.9375 1.87109L4.03125 0.914062C4.27734 0.722656 4.63281 0.722656 4.87891 0.914062L6 1.87109L7.09375 0.914062C7.33984 0.722656 7.69531 0.722656 7.94141 0.914062L9.0625 1.87109L10.1562 0.914062C10.3477 0.75 10.6211 0.722656 10.8672 0.832031C11.0859 0.941406 11.25 1.16016 11.25 1.40625V14.0938C11.25 14.3672 11.0859 14.5859 10.8672 14.6953C10.6211 14.8047 10.3477 14.7773 10.1562 14.6133L9.0625 13.6562L7.94141 14.6133C7.69531 14.8047 7.33984 14.8047 7.09375 14.6133L6 13.6562L4.87891 14.6133C4.63281 14.8047 4.27734 14.8047 4.03125 14.6133L2.9375 13.6562L1.81641 14.6133C1.625 14.7773 1.35156 14.8047 1.10547 14.6953C0.886719 14.5859 0.75 14.3672 0.75 14.0938V1.40625C0.75 1.16016 0.886719 0.941406 1.10547 0.832031ZM3.375 4.6875C3.12891 4.6875 2.9375 4.90625 2.9375 5.125C2.9375 5.37109 3.12891 5.5625 3.375 5.5625H8.625C8.84375 5.5625 9.0625 5.37109 9.0625 5.125C9.0625 4.90625 8.84375 4.6875 8.625 4.6875H3.375ZM3.375 10.8125H8.625C8.84375 10.8125 9.0625 10.6211 9.0625 10.375C9.0625 10.1562 8.84375 9.9375 8.625 9.9375H3.375C3.12891 9.9375 2.9375 10.1562 2.9375 10.375C2.9375 10.6211 3.12891 10.8125 3.375 10.8125ZM3.375 7.3125C3.12891 7.3125 2.9375 7.53125 2.9375 7.75C2.9375 7.99609 3.12891 8.1875 3.375 8.1875H8.625C8.84375 8.1875 9.0625 7.99609 9.0625 7.75C9.0625 7.53125 8.84375 7.3125 8.625 7.3125H3.375Z"/>
</symbol><symbol viewBox="0 0 384 512" id="location" xmlns="http://www.w3.org/2000/svg"><!--! Font Awesome Pro 6.4.2 by @fontawesome - https://fontawesome.com License - https://fontawesome.com/license (Commercial License) Copyright 2023 Fonticons, Inc. --><path d="M215.7 499.2C267 435 384 279.4 384 192C384 86 298 0 192 0S0 86 0 192c0 87.4 117 243 168.3 307.2c12.3 15.3 35.1 15.3 47.4 0zM192 128a64 64 0 1 1 0 128 64 64 0 1 1 0-128z"/></symbol><symbol viewBox="0 0 14 15" id="on-hold" xmlns="http://www.w3.org/2000/svg">
<path d="M5.46875 5.125C5.82422 5.125 6.125 5.42578 6.125 5.78125V9.71875C6.125 10.1016 5.82422 10.375 5.46875 10.375C5.08594 10.375 4.8125 10.1016 4.8125 9.71875V5.78125C4.8125 5.42578 5.08594 5.125 5.46875 5.125ZM8.53125 5.125C8.88672 5.125 9.1875 5.42578 9.1875 5.78125V9.71875C9.1875 10.1016 8.88672 10.375 8.53125 10.375C8.14844 10.375 7.875 10.1016 7.875 9.71875V5.78125C7.875 5.42578 8.14844 5.125 8.53125 5.125ZM7 0.75C10.8555 0.75 14 3.89453 14 7.75C14 11.6328 10.8555 14.75 7 14.75C3.11719 14.75 0 11.6328 0 7.75C0 3.89453 3.11719 0.75 7 0.75ZM7 13.4375C10.1172 13.4375 12.6875 10.8945 12.6875 7.75C12.6875 4.63281 10.1172 2.0625 7 2.0625C3.85547 2.0625 1.3125 4.63281 1.3125 7.75C1.3125 10.8945 3.85547 13.4375 7 13.4375Z"/>
</symbol><symbol viewBox="0 0 15 21" id="pdf" xmlns="http://www.w3.org/2000/svg">
<path d="M12.5 18.625C12.8125 18.625 13.125 18.3516 13.125 18V16.75H15V18C15 19.4062 13.8672 20.5 12.5 20.5H2.5C1.09375 20.5 0 19.4062 0 18V16.75H1.875V18C1.875 18.3516 2.14844 18.625 2.5 18.625H12.5ZM10 6.75C9.29688 6.75 8.75 6.20312 8.75 5.5V2.375H2.5C2.14844 2.375 1.875 2.6875 1.875 3V8H0V3C0 1.63281 1.09375 0.5 2.5 0.5H8.94531C9.60938 0.5 10.2344 0.773438 10.7031 1.24219L14.2578 4.79688C14.7266 5.26562 15 5.89062 15 6.55469V8H13.125V6.75H10ZM3.4375 9.25C4.60938 9.25 5.625 10.2656 5.625 11.4375C5.625 12.6484 4.60938 13.625 3.4375 13.625H3.125V14.875C3.125 15.2266 2.8125 15.5 2.5 15.5C2.14844 15.5 1.875 15.2266 1.875 14.875V9.875C1.875 9.5625 2.14844 9.25 2.5 9.25H3.4375ZM4.375 11.4375C4.375 10.9297 3.94531 10.5 3.4375 10.5H3.125V12.375H3.4375C3.94531 12.375 4.375 11.9844 4.375 11.4375ZM6.25 9.875C6.25 9.5625 6.52344 9.25 6.875 9.25H7.8125C8.82812 9.25 9.6875 10.1094 9.6875 11.125V13.625C9.6875 14.6797 8.82812 15.5 7.8125 15.5H6.875C6.52344 15.5 6.25 15.2266 6.25 14.875V9.875ZM7.5 14.25H7.8125C8.125 14.25 8.4375 13.9766 8.4375 13.625V11.125C8.4375 10.8125 8.125 10.5 7.8125 10.5H7.5V14.25ZM13.125 9.25C13.4375 9.25 13.75 9.5625 13.75 9.875C13.75 10.2266 13.4375 10.5 13.125 10.5H11.875V11.75H13.125C13.4375 11.75 13.75 12.0625 13.75 12.375C13.75 12.7266 13.4375 13 13.125 13H11.875V14.875C11.875 15.2266 11.5625 15.5 11.25 15.5C10.8984 15.5 10.625 15.2266 10.625 14.875V9.875C10.625 9.5625 10.8984 9.25 11.25 9.25H13.125Z"/>
</symbol><symbol viewBox="0 0 512 512" id="phone" xmlns="http://www.w3.org/2000/svg"><!--! Font Awesome Pro 6.4.2 by @fontawesome - https://fontawesome.com License - https://fontawesome.com/license (Commercial License) Copyright 2023 Fonticons, Inc. --><path d="M164.9 24.6c-7.7-18.6-28-28.5-47.4-23.2l-88 24C12.1 30.2 0 46 0 64C0 311.4 200.6 512 448 512c18 0 33.8-12.1 38.6-29.5l24-88c5.3-19.4-4.6-39.7-23.2-47.4l-96-40c-16.3-6.8-35.2-2.1-46.3 11.6L304.7 368C234.3 334.7 177.3 277.7 144 207.3L193.3 167c13.7-11.2 18.4-30 11.6-46.3l-40-96z"/></symbol><symbol viewBox="0 0 9 15" id="quote" xmlns="http://www.w3.org/2000/svg">
<path d="M5 0.75C5.46484 0.75 5.875 1.16016 5.875 1.625V2.60938C5.90234 2.60938 5.95703 2.63672 5.98438 2.63672C6.28516 2.66406 7.13281 2.82812 7.48828 2.91016C7.95312 3.01953 8.25391 3.51172 8.14453 3.97656C8.00781 4.44141 7.54297 4.71484 7.07812 4.60547C6.80469 4.52344 6.03906 4.41406 5.73828 4.35938C4.86328 4.22266 4.09766 4.30469 3.57812 4.49609C3.08594 4.6875 2.86719 4.96094 2.8125 5.26172C2.75781 5.5625 2.8125 5.72656 2.86719 5.83594C2.92188 5.94531 3.00391 6.05469 3.22266 6.19141C3.66016 6.49219 4.34375 6.68359 5.21875 6.92969H5.30078C6.06641 7.14844 7.02344 7.42188 7.73438 7.88672C8.11719 8.13281 8.47266 8.48828 8.69141 8.95312C8.9375 9.44531 8.96484 9.99219 8.88281 10.5664C8.69141 11.6055 7.95312 12.3164 7.07812 12.6719C6.69531 12.8359 6.28516 12.918 5.875 12.9727V13.875C5.875 14.3672 5.46484 14.75 5 14.75C4.50781 14.75 4.125 14.3672 4.125 13.875V12.9453C4.09766 12.9453 4.09766 12.918 4.07031 12.918C3.41406 12.8359 2.32031 12.5352 1.58203 12.207C1.11719 12.0156 0.925781 11.4961 1.11719 11.0586C1.30859 10.6211 1.82812 10.4023 2.26562 10.6211C2.83984 10.8672 3.79688 11.1133 4.34375 11.1953C5.21875 11.332 5.92969 11.25 6.42188 11.0586C6.88672 10.8672 7.07812 10.5938 7.16016 10.2656C7.21484 9.96484 7.16016 9.80078 7.10547 9.69141C7.05078 9.58203 6.96875 9.47266 6.75 9.33594C6.3125 9.03516 5.62891 8.84375 4.75391 8.59766H4.67188C3.90625 8.37891 2.94922 8.10547 2.23828 7.64062C1.85547 7.39453 1.5 7.03906 1.28125 6.57422C1.03516 6.08203 1.00781 5.53516 1.08984 4.93359C1.30859 3.89453 2.07422 3.21094 2.94922 2.85547C3.30469 2.71875 3.71484 2.63672 4.125 2.58203V1.625C4.125 1.16016 4.50781 0.75 5 0.75Z"/>
</symbol><symbol viewBox="0 0 14 13" id="report" xmlns="http://www.w3.org/2000/svg">
<path d="M5.25 1.9375C5.25 1.22656 5.82422 0.625 6.5625 0.625H7.4375C8.14844 0.625 8.75 1.22656 8.75 1.9375V11.5625C8.75 12.3008 8.14844 12.875 7.4375 12.875H6.5625C5.82422 12.875 5.25 12.3008 5.25 11.5625V1.9375ZM0.875 7.1875C0.875 6.47656 1.44922 5.875 2.1875 5.875H3.0625C3.77344 5.875 4.375 6.47656 4.375 7.1875V11.5625C4.375 12.3008 3.77344 12.875 3.0625 12.875H2.1875C1.44922 12.875 0.875 12.3008 0.875 11.5625V7.1875ZM11.8125 2.375C12.5234 2.375 13.125 2.97656 13.125 3.6875V11.5625C13.125 12.3008 12.5234 12.875 11.8125 12.875H10.9375C10.1992 12.875 9.625 12.3008 9.625 11.5625V3.6875C9.625 2.97656 10.1992 2.375 10.9375 2.375H11.8125Z"/>
</symbol><symbol viewBox="0 0 14 15" id="request" xmlns="http://www.w3.org/2000/svg">
<path d="M7 0.75C10.8555 0.75 14 3.89453 14 7.75C14 11.6328 10.8555 14.75 7 14.75C3.11719 14.75 0 11.6328 0 7.75C0 3.89453 3.11719 0.75 7 0.75ZM7 13.4375C10.1172 13.4375 12.6875 10.8945 12.6875 7.75C12.6875 4.63281 10.1172 2.0625 7 2.0625C3.85547 2.0625 1.3125 4.63281 1.3125 7.75C1.3125 10.8945 3.85547 13.4375 7 13.4375ZM7 9.9375C7.46484 9.9375 7.875 10.3203 7.875 10.8125C7.875 11.3047 7.46484 11.6875 7 11.6875C6.48047 11.6875 6.125 11.3047 6.125 10.8125C6.125 10.3203 6.50781 9.9375 7 9.9375ZM7.90234 4.25C8.99609 4.25 9.84375 5.09766 9.81641 6.16406C9.81641 6.82031 9.46094 7.44922 8.88672 7.80469L7.65625 8.57031V8.625C7.65625 8.98047 7.35547 9.28125 7 9.28125C6.64453 9.28125 6.34375 8.98047 6.34375 8.625V8.1875C6.34375 7.96875 6.45312 7.75 6.67188 7.61328L8.23047 6.68359C8.42188 6.57422 8.53125 6.38281 8.53125 6.16406C8.53125 5.83594 8.23047 5.5625 7.875 5.5625H6.48047C6.15234 5.5625 5.90625 5.83594 5.90625 6.16406C5.90625 6.51953 5.60547 6.82031 5.25 6.82031C4.89453 6.82031 4.59375 6.51953 4.59375 6.16406C4.59375 5.09766 5.44141 4.25 6.50781 4.25H7.90234Z"/>
</symbol><symbol viewBox="0 0 12 15" id="required" xmlns="http://www.w3.org/2000/svg">
<path d="M10.375 0.75C10.8398 0.75 11.25 1.16016 11.25 1.625C11.25 2.11719 10.8398 2.5 10.375 2.5V2.80078C10.375 3.97656 9.91016 5.09766 9.08984 5.91797L7.23047 7.75L9.08984 9.60938C9.91016 10.4297 10.375 11.5508 10.375 12.6992V13C10.8398 13 11.25 13.4102 11.25 13.875C11.25 14.3672 10.8398 14.75 10.375 14.75H1.625C1.13281 14.75 0.75 14.3672 0.75 13.875C0.75 13.4102 1.13281 13 1.625 13V12.6992C1.625 11.5508 2.0625 10.4297 2.88281 9.60938L4.74219 7.75L2.88281 5.91797C2.0625 5.09766 1.625 3.97656 1.625 2.80078V2.5C1.13281 2.5 0.75 2.11719 0.75 1.625C0.75 1.16016 1.13281 0.75 1.625 0.75H10.375ZM3.78516 4.25H8.1875C8.46094 3.83984 8.625 3.32031 8.625 2.80078V2.5H3.375V2.80078C3.375 3.32031 3.51172 3.83984 3.78516 4.25ZM3.78516 11.25H8.1875C8.07812 11.1133 7.96875 10.9766 7.83203 10.8672L6 9.00781L4.14062 10.8672C4.00391 10.9766 3.89453 11.1133 3.78516 11.25Z"/>
</symbol><symbol viewBox="0 0 14 15" id="secure" xmlns="http://www.w3.org/2000/svg">
<path d="M3.0625 6V4.6875C3.0625 2.52734 4.8125 0.75 7 0.75C9.16016 0.75 10.9375 2.52734 10.9375 4.6875V6H11.375C12.332 6 13.125 6.79297 13.125 7.75V13C13.125 13.9844 12.332 14.75 11.375 14.75H2.625C1.64062 14.75 0.875 13.9844 0.875 13V7.75C0.875 6.79297 1.64062 6 2.625 6H3.0625ZM4.8125 6H9.1875V4.6875C9.1875 3.48438 8.20312 2.5 7 2.5C5.76953 2.5 4.8125 3.48438 4.8125 4.6875V6Z"/>
</symbol><symbol viewBox="0 0 18 17" id="send" xmlns="http://www.w3.org/2000/svg">
<path d="M16.9688 2.15625L14.9688 15.125C14.9375 15.4375 14.75 15.7188 14.4688 15.875C14.3125 15.9375 14.1562 16 13.9688 16C13.8438 16 13.7188 15.9688 13.5938 15.9062L9.78125 14.3125L8.1875 16.6875C8.0625 16.9062 7.84375 17 7.625 17C7.28125 17 7 16.7188 7 16.375V13.375C7 13.125 7.0625 12.9062 7.1875 12.75L14 4L4.8125 12.2812L1.59375 10.9375C1.25 10.7812 1 10.4688 1 10.0625C0.96875 9.625 1.15625 9.3125 1.5 9.125L15.5 1.15625C15.8125 0.96875 16.25 0.96875 16.5625 1.1875C16.875 1.40625 17.0312 1.78125 16.9688 2.15625Z"/>
</symbol><symbol viewBox="0 0 10 8" id="tick" xmlns="http://www.w3.org/2000/svg">
<path fill-rule="evenodd" clip-rule="evenodd" d="M9.70711 0.292893C10.0976 0.683417 10.0976 1.31658 9.70711 1.70711L3.70711 7.70711C3.31658 8.09763 2.68342 8.09763 2.29289 7.70711L0.292893 5.70711C-0.0976311 5.31658 -0.0976311 4.68342 0.292893 4.29289C0.683417 3.90237 1.31658 3.90237 1.70711 4.29289L3 5.58579L8.29289 0.292893C8.68342 -0.0976311 9.31658 -0.0976311 9.70711 0.292893Z"/>
</symbol><symbol viewBox="0 0 11 13" id="user" xmlns="http://www.w3.org/2000/svg">
<path d="M5.25 6.5C3.58594 6.5 2.25 5.16406 2.25 3.5C2.25 1.85938 3.58594 0.5 5.25 0.5C6.89062 0.5 8.25 1.85938 8.25 3.5C8.25 5.16406 6.89062 6.5 5.25 6.5ZM6.42188 7.625C8.67188 7.625 10.5 9.45312 10.5 11.7031C10.5 12.1484 10.125 12.5 9.67969 12.5H0.796875C0.351562 12.5 0 12.1484 0 11.7031C0 9.45312 1.80469 7.625 4.05469 7.625H6.42188Z"/>
</symbol><symbol viewBox="0 0 14 14" id="variation" xmlns="http://www.w3.org/2000/svg">
<path d="M6.80859 0.460938C7.13672 0.105469 7.71094 0.105469 8.03906 0.460938C8.39453 0.789062 8.39453 1.36328 8.03906 1.69141L7.35547 2.375H11.375C12.8242 2.375 14 3.55078 14 5V5.875C14 6.36719 13.5898 6.75 13.125 6.75C12.6328 6.75 12.25 6.36719 12.25 5.875V5C12.25 4.53516 11.8398 4.125 11.375 4.125H7.35547L8.03906 4.83594C8.39453 5.16406 8.39453 5.73828 8.03906 6.06641C7.71094 6.42188 7.13672 6.42188 6.80859 6.06641L4.62109 3.87891C4.26562 3.55078 4.26562 2.97656 4.62109 2.64844L6.80859 0.460938ZM9.35156 9.64844C9.70703 9.97656 9.70703 10.5508 9.35156 10.8789L7.16406 13.0664C6.83594 13.4219 6.26172 13.4219 5.93359 13.0664C5.57812 12.7383 5.57812 12.1641 5.93359 11.8359L6.61719 11.125H2.625C2.13281 11.125 1.75 11.5352 1.75 12V12.875C1.75 13.3672 1.33984 13.75 0.875 13.75C0.382812 13.75 0 13.3672 0 12.875V12C0 10.5508 1.14844 9.375 2.625 9.375H6.61719L5.93359 8.69141C5.57812 8.36328 5.57812 7.78906 5.93359 7.46094C6.26172 7.10547 6.83594 7.10547 7.16406 7.46094L9.35156 9.64844ZM14 10.25C14 11.2344 13.207 12 12.25 12C11.2656 12 10.5 11.2344 10.5 10.25C10.5 9.29297 11.2656 8.5 12.25 8.5C13.207 8.5 14 9.29297 14 10.25ZM3.5 3.25C3.5 4.23438 2.70703 5 1.75 5C0.765625 5 0 4.23438 0 3.25C0 2.29297 0.765625 1.5 1.75 1.5C2.70703 1.5 3.5 2.29297 3.5 3.25Z"/>
</symbol><symbol viewBox="0 0 15 21" id="w" xmlns="http://www.w3.org/2000/svg">
<path d="M14.2578 4.17188C14.7266 4.64062 15 5.26562 15 5.92969V18C15 19.4062 13.8672 20.5 12.5 20.5H2.5C1.09375 20.5 0 19.4062 0 18V3C0 1.63281 1.09375 0.5 2.5 0.5H9.57031C10.2344 0.5 10.8594 0.773438 11.3281 1.24219L14.2578 4.17188ZM13.125 18H13.0859V6.75H10C9.29688 6.75 8.75 6.20312 8.75 5.5V2.41406H2.5C2.14844 2.41406 1.875 2.6875 1.875 3.03906V18C1.875 18.3516 2.14844 18.625 2.5 18.625H12.5C12.8125 18.625 13.125 18.3516 13.125 18ZM8.35938 10.1875L9.33594 12.9609L10.3516 9.91406C10.5078 9.40625 11.0156 9.17188 11.5234 9.32812C12.0312 9.48438 12.2656 9.99219 12.1094 10.5L10.2344 16.125C10.1172 16.5156 9.76562 16.75 9.375 16.75C8.94531 16.75 8.59375 16.5156 8.47656 16.125L7.5 13.3516L6.48438 16.125C6.36719 16.5156 5.97656 16.75 5.58594 16.75C5.19531 16.75 4.84375 16.5156 4.72656 16.125L2.85156 10.5C2.69531 9.99219 2.92969 9.48438 3.4375 9.32812C3.94531 9.17188 4.45312 9.40625 4.60938 9.91406L5.625 12.9609L6.60156 10.1875C6.71875 9.83594 7.07031 9.5625 7.5 9.5625C7.89062 9.5625 8.24219 9.83594 8.35938 10.1875Z"/>
</symbol></svg>