<svg aria-hidden="true" xmlns="http://www.w3.org/2000/svg" xmlns:xlink="http://www.w3.org/1999/xlink"><symbol viewBox="0 0 6 10" id="arrow" xmlns="http://www.w3.org/2000/svg">
<path fill-rule="evenodd" clip-rule="evenodd" d="M5.70711 0.292893C6.09763 0.683418 6.09763 1.31658 5.70711 1.70711L2.41421 5L5.70711 8.29289C6.09763 8.68342 6.09763 9.31658 5.70711 9.70711C5.31658 10.0976 4.68342 10.0976 4.29289 9.70711L0.292893 5.70711C-0.0976312 5.31658 -0.0976312 4.68342 0.292893 4.29289L4.29289 0.292893C4.68342 -0.0976312 5.31658 -0.0976311 5.70711 0.292893Z"/>
</symbol><symbol viewBox="0 0 10 6" id="arrow-down" xmlns="http://www.w3.org/2000/svg">
<path fill-rule="evenodd" clip-rule="evenodd" d="M0.292893 0.292893C0.683417 -0.0976311 1.31658 -0.0976311 1.70711 0.292893L5 3.58579L8.29289 0.292893C8.68342 -0.0976311 9.31658 -0.0976311 9.70711 0.292893C10.0976 0.683417 10.0976 1.31658 9.70711 1.70711L5.70711 5.70711C5.31658 6.09763 4.68342 6.09763 4.29289 5.70711L0.292893 1.70711C-0.0976311 1.31658 -0.0976311 0.683417 0.292893 0.292893Z"/>
</symbol><symbol viewBox="0 0 17 16" id="attention" xmlns="http://www.w3.org/2000/svg">
<path d="M8.5 0C12.9062 0 16.5 3.59375 16.5 8C16.5 12.4375 12.9062 16 8.5 16C4.0625 16 0.5 12.4375 0.5 8C0.5 3.59375 4.0625 0 8.5 0ZM8.5 4C7.9375 4 7.5 4.46875 7.5 5C7.5 5.5625 7.9375 6 8.5 6C9.03125 6 9.5 5.5625 9.5 5C9.5 4.46875 9.03125 4 8.5 4ZM9.75 12C10.1562 12 10.5 11.6875 10.5 11.25C10.5 10.8438 10.1562 10.5 9.75 10.5H9.25V7.75C9.25 7.34375 8.90625 7 8.5 7H7.5C7.0625 7 6.75 7.34375 6.75 7.75C6.75 8.1875 7.0625 8.5 7.5 8.5H7.75V10.5H7.25C6.8125 10.5 6.5 10.8438 6.5 11.25C6.5 11.6875 6.8125 12 7.25 12H9.75Z"/>
</symbol><symbol viewBox="0 0 14 15" id="calendar" xmlns="http://www.w3.org/2000/svg">
<path d="M5.03125 2.5H8.96875V1.40625C8.96875 1.05078 9.24219 0.75 9.625 0.75C9.98047 0.75 10.2812 1.05078 10.2812 1.40625V2.5H11.375C12.332 2.5 13.125 3.29297 13.125 4.25V13C13.125 13.9844 12.332 14.75 11.375 14.75H2.625C1.64062 14.75 0.875 13.9844 0.875 13V4.25C0.875 3.29297 1.64062 2.5 2.625 2.5H3.71875V1.40625C3.71875 1.05078 3.99219 0.75 4.375 0.75C4.73047 0.75 5.03125 1.05078 5.03125 1.40625V2.5ZM2.1875 13C2.1875 13.2461 2.37891 13.4375 2.625 13.4375H11.375C11.5938 13.4375 11.8125 13.2461 11.8125 13V6H2.1875V13Z"/>
</symbol><symbol viewBox="0 0 14 14" id="clock" xmlns="http://www.w3.org/2000/svg">
<path d="M7 14C3.11719 14 0 10.8828 0 7C0 3.14453 3.11719 0 7 0C10.8555 0 14 3.14453 14 7C14 10.8828 10.8555 14 7 14ZM6.34375 7C6.34375 7.21875 6.45312 7.4375 6.61719 7.54688L9.24219 9.29688C9.54297 9.51562 9.95312 9.43359 10.1445 9.13281C10.3633 8.83203 10.2812 8.42188 9.98047 8.20312L7.65625 6.67188V3.28125C7.65625 2.92578 7.35547 2.625 6.97266 2.625C6.61719 2.625 6.31641 2.92578 6.31641 3.28125L6.34375 7Z"/>
</symbol><symbol viewBox="0 0 10 10" id="close" xmlns="http://www.w3.org/2000/svg">
<path fill-rule="evenodd" clip-rule="evenodd" d="M0.292893 9.70711C-0.0976311 9.31658 -0.0976311 8.68342 0.292893 8.29289L3.58579 5L0.292893 1.70711C-0.0976311 1.31658 -0.0976311 0.683417 0.292893 0.292893C0.683417 -0.0976315 1.31658 -0.0976315 1.70711 0.292893L5 3.58579L8.29289 0.292893C8.68342 -0.0976315 9.31658 -0.0976315 9.70711 0.292893C10.0976 0.683417 10.0976 1.31658 9.70711 1.70711L6.41421 5L9.70711 8.29289C10.0976 8.68342 10.0976 9.31658 9.70711 9.70711C9.31658 10.0976 8.68342 10.0976 8.29289 9.70711L5 6.41421L1.70711 9.70711C1.31658 10.0976 0.683417 10.0976 0.292893 9.70711Z"/>
</symbol><symbol viewBox="0 0 384 512" id="location" xmlns="http://www.w3.org/2000/svg"><!--! Font Awesome Pro 6.4.2 by @fontawesome - https://fontawesome.com License - https://fontawesome.com/license (Commercial License) Copyright 2023 Fonticons, Inc. --><path d="M215.7 499.2C267 435 384 279.4 384 192C384 86 298 0 192 0S0 86 0 192c0 87.4 117 243 168.3 307.2c12.3 15.3 35.1 15.3 47.4 0zM192 128a64 64 0 1 1 0 128 64 64 0 1 1 0-128z"/></symbol><symbol viewBox="0 0 15 21" id="pdf" xmlns="http://www.w3.org/2000/svg">
<path d="M12.5 18.625C12.8125 18.625 13.125 18.3516 13.125 18V16.75H15V18C15 19.4062 13.8672 20.5 12.5 20.5H2.5C1.09375 20.5 0 19.4062 0 18V16.75H1.875V18C1.875 18.3516 2.14844 18.625 2.5 18.625H12.5ZM10 6.75C9.29688 6.75 8.75 6.20312 8.75 5.5V2.375H2.5C2.14844 2.375 1.875 2.6875 1.875 3V8H0V3C0 1.63281 1.09375 0.5 2.5 0.5H8.94531C9.60938 0.5 10.2344 0.773438 10.7031 1.24219L14.2578 4.79688C14.7266 5.26562 15 5.89062 15 6.55469V8H13.125V6.75H10ZM3.4375 9.25C4.60938 9.25 5.625 10.2656 5.625 11.4375C5.625 12.6484 4.60938 13.625 3.4375 13.625H3.125V14.875C3.125 15.2266 2.8125 15.5 2.5 15.5C2.14844 15.5 1.875 15.2266 1.875 14.875V9.875C1.875 9.5625 2.14844 9.25 2.5 9.25H3.4375ZM4.375 11.4375C4.375 10.9297 3.94531 10.5 3.4375 10.5H3.125V12.375H3.4375C3.94531 12.375 4.375 11.9844 4.375 11.4375ZM6.25 9.875C6.25 9.5625 6.52344 9.25 6.875 9.25H7.8125C8.82812 9.25 9.6875 10.1094 9.6875 11.125V13.625C9.6875 14.6797 8.82812 15.5 7.8125 15.5H6.875C6.52344 15.5 6.25 15.2266 6.25 14.875V9.875ZM7.5 14.25H7.8125C8.125 14.25 8.4375 13.9766 8.4375 13.625V11.125C8.4375 10.8125 8.125 10.5 7.8125 10.5H7.5V14.25ZM13.125 9.25C13.4375 9.25 13.75 9.5625 13.75 9.875C13.75 10.2266 13.4375 10.5 13.125 10.5H11.875V11.75H13.125C13.4375 11.75 13.75 12.0625 13.75 12.375C13.75 12.7266 13.4375 13 13.125 13H11.875V14.875C11.875 15.2266 11.5625 15.5 11.25 15.5C10.8984 15.5 10.625 15.2266 10.625 14.875V9.875C10.625 9.5625 10.8984 9.25 11.25 9.25H13.125Z"/>
</symbol><symbol viewBox="0 0 512 512" id="phone" xmlns="http://www.w3.org/2000/svg"><!--! Font Awesome Pro 6.4.2 by @fontawesome - https://fontawesome.com License - https://fontawesome.com/license (Commercial License) Copyright 2023 Fonticons, Inc. --><path d="M164.9 24.6c-7.7-18.6-28-28.5-47.4-23.2l-88 24C12.1 30.2 0 46 0 64C0 311.4 200.6 512 448 512c18 0 33.8-12.1 38.6-29.5l24-88c5.3-19.4-4.6-39.7-23.2-47.4l-96-40c-16.3-6.8-35.2-2.1-46.3 11.6L304.7 368C234.3 334.7 177.3 277.7 144 207.3L193.3 167c13.7-11.2 18.4-30 11.6-46.3l-40-96z"/></symbol><symbol viewBox="0 0 18 17" id="send" xmlns="http://www.w3.org/2000/svg">
<path d="M16.9688 2.15625L14.9688 15.125C14.9375 15.4375 14.75 15.7188 14.4688 15.875C14.3125 15.9375 14.1562 16 13.9688 16C13.8438 16 13.7188 15.9688 13.5938 15.9062L9.78125 14.3125L8.1875 16.6875C8.0625 16.9062 7.84375 17 7.625 17C7.28125 17 7 16.7188 7 16.375V13.375C7 13.125 7.0625 12.9062 7.1875 12.75L14 4L4.8125 12.2812L1.59375 10.9375C1.25 10.7812 1 10.4688 1 10.0625C0.96875 9.625 1.15625 9.3125 1.5 9.125L15.5 1.15625C15.8125 0.96875 16.25 0.96875 16.5625 1.1875C16.875 1.40625 17.0312 1.78125 16.9688 2.15625Z"/>
</symbol><symbol viewBox="0 0 10 8" id="tick" xmlns="http://www.w3.org/2000/svg">
<path fill-rule="evenodd" clip-rule="evenodd" d="M9.70711 0.292893C10.0976 0.683417 10.0976 1.31658 9.70711 1.70711L3.70711 7.70711C3.31658 8.09763 2.68342 8.09763 2.29289 7.70711L0.292893 5.70711C-0.0976311 5.31658 -0.0976311 4.68342 0.292893 4.29289C0.683417 3.90237 1.31658 3.90237 1.70711 4.29289L3 5.58579L8.29289 0.292893C8.68342 -0.0976311 9.31658 -0.0976311 9.70711 0.292893Z"/>
</symbol><symbol viewBox="0 0 11 13" id="user" xmlns="http://www.w3.org/2000/svg">
<path d="M5.25 6.5C3.58594 6.5 2.25 5.16406 2.25 3.5C2.25 1.85938 3.58594 0.5 5.25 0.5C6.89062 0.5 8.25 1.85938 8.25 3.5C8.25 5.16406 6.89062 6.5 5.25 6.5ZM6.42188 7.625C8.67188 7.625 10.5 9.45312 10.5 11.7031C10.5 12.1484 10.125 12.5 9.67969 12.5H0.796875C0.351562 12.5 0 12.1484 0 11.7031C0 9.45312 1.80469 7.625 4.05469 7.625H6.42188Z"/>
</symbol><symbol viewBox="0 0 15 21" id="w" xmlns="http://www.w3.org/2000/svg">
<path d="M14.2578 4.17188C14.7266 4.64062 15 5.26562 15 5.92969V18C15 19.4062 13.8672 20.5 12.5 20.5H2.5C1.09375 20.5 0 19.4062 0 18V3C0 1.63281 1.09375 0.5 2.5 0.5H9.57031C10.2344 0.5 10.8594 0.773438 11.3281 1.24219L14.2578 4.17188ZM13.125 18H13.0859V6.75H10C9.29688 6.75 8.75 6.20312 8.75 5.5V2.41406H2.5C2.14844 2.41406 1.875 2.6875 1.875 3.03906V18C1.875 18.3516 2.14844 18.625 2.5 18.625H12.5C12.8125 18.625 13.125 18.3516 13.125 18ZM8.35938 10.1875L9.33594 12.9609L10.3516 9.91406C10.5078 9.40625 11.0156 9.17188 11.5234 9.32812C12.0312 9.48438 12.2656 9.99219 12.1094 10.5L10.2344 16.125C10.1172 16.5156 9.76562 16.75 9.375 16.75C8.94531 16.75 8.59375 16.5156 8.47656 16.125L7.5 13.3516L6.48438 16.125C6.36719 16.5156 5.97656 16.75 5.58594 16.75C5.19531 16.75 4.84375 16.5156 4.72656 16.125L2.85156 10.5C2.69531 9.99219 2.92969 9.48438 3.4375 9.32812C3.94531 9.17188 4.45312 9.40625 4.60938 9.91406L5.625 12.9609L6.60156 10.1875C6.71875 9.83594 7.07031 9.5625 7.5 9.5625C7.89062 9.5625 8.24219 9.83594 8.35938 10.1875Z"/>
</symbol></svg>