<svg width="330" height="62" viewBox="0 0 330 62" fill="none" xmlns="http://www.w3.org/2000/svg">
<g clip-path="url(#clip0_1_982)">
<path d="M203.665 13.12C205.212 11.68 205.985 9.84 205.985 7.6C205.985 5.41333 205.212 3.6 203.665 2.16C202.172 0.72 200.358 0 198.225 0C196.092 0 194.252 0.72 192.705 2.16C191.212 3.6 190.465 5.41333 190.465 7.6C190.465 9.84 191.212 11.68 192.705 13.12C194.252 14.56 196.092 15.28 198.225 15.28C200.358 15.28 202.172 14.56 203.665 13.12Z" fill="#F83B6C"/>
<path d="M204.865 60.32C205.078 60.1067 205.185 59.68 205.185 59.04V20.24C205.185 19.6 205.078 19.1733 204.865 18.96C204.705 18.7467 204.172 18.64 203.265 18.64H192.625C191.398 18.64 190.785 19.1733 190.785 20.24V59.04C190.785 60.1067 191.398 60.64 192.625 60.64H203.265C204.172 60.64 204.705 60.5333 204.865 60.32Z" fill="#F83B6C"/>
<path d="M184.098 17.36C185.218 17.36 185.778 16.7467 185.778 15.52V6.56C185.778 5.65333 185.644 5.12 185.378 4.96C185.164 4.74666 184.738 4.64 184.098 4.64H141.938C141.298 4.64 140.844 4.74666 140.578 4.96C140.364 5.12 140.258 5.65333 140.258 6.56V15.52C140.258 16.7467 140.818 17.36 141.938 17.36H155.298V58.96C155.298 60.08 155.911 60.64 157.138 60.64H168.498C169.404 60.64 169.938 60.5333 170.098 60.32C170.311 60.0533 170.418 59.6 170.418 58.96V17.36H184.098Z" fill="#F83B6C"/>
<path d="M138.834 40.48C138.834 41.7067 138.301 42.32 137.234 42.32H115.634C114.568 42.32 114.034 41.7067 114.034 40.48V32.56C114.034 31.6533 114.141 31.12 114.354 30.96C114.568 30.7467 114.994 30.64 115.634 30.64H137.234C137.874 30.64 138.301 30.7467 138.514 30.96C138.728 31.12 138.834 31.6533 138.834 32.56V40.48Z" fill="#F83B6C"/>
<path d="M230.925 60.32C231.138 60.1067 231.245 59.68 231.245 59.04V29.36C231.938 29.2533 232.632 29.1733 233.325 29.12C234.072 29.0667 234.685 29.04 235.165 29.04C238.045 29.04 239.965 29.7333 240.925 31.12C241.938 32.4533 242.445 34.48 242.445 37.2V59.04C242.445 60.1067 243.058 60.64 244.285 60.64H255.085C255.992 60.64 256.525 60.5333 256.685 60.32C256.898 60.1067 257.005 59.68 257.005 59.04V38.16C257.005 35.28 256.712 32.6667 256.125 30.32C256.445 30.2133 256.845 30.1067 257.325 30C257.805 29.8933 258.285 29.8133 258.765 29.76C259.298 29.6533 259.805 29.6 260.285 29.6C260.765 29.5467 261.138 29.52 261.405 29.52C262.898 29.52 264.125 29.7333 265.085 30.16C266.045 30.5867 266.792 31.2 267.325 32C267.858 32.8 268.205 33.7867 268.365 34.96C268.578 36.1333 268.685 37.44 268.685 38.88V59.04C268.685 60.1067 269.298 60.64 270.525 60.64H281.165C282.072 60.64 282.605 60.5333 282.765 60.32C282.978 60.1067 283.085 59.68 283.085 59.04V37.28C283.085 34.3467 282.685 31.68 281.885 29.28C281.138 26.8267 279.938 24.72 278.285 22.96C276.685 21.2 274.578 19.84 271.965 18.88C269.405 17.8667 266.312 17.36 262.685 17.36C261.618 17.36 260.472 17.44 259.245 17.6C258.018 17.76 256.818 18 255.645 18.32C254.472 18.64 253.352 19.04 252.285 19.52C251.218 19.9467 250.285 20.4267 249.485 20.96C247.565 19.7333 245.298 18.8533 242.685 18.32C240.072 17.7333 237.112 17.44 233.805 17.44C232.898 17.44 231.832 17.4667 230.605 17.52C229.378 17.5733 228.152 17.6533 226.925 17.76C225.752 17.8133 224.632 17.92 223.565 18.08C222.552 18.1867 221.778 18.2933 221.245 18.4C219.378 18.8267 218.178 19.5733 217.645 20.64C217.112 21.6533 216.845 23.0133 216.845 24.72V59.04C216.845 60.1067 217.458 60.64 218.685 60.64H229.325C230.232 60.64 230.765 60.5333 230.925 60.32Z" fill="#F83B6C"/>
<path fill-rule="evenodd" clip-rule="evenodd" d="M325.086 22.08C321.779 18.9867 316.926 17.44 310.526 17.44C303.859 17.44 298.739 19.3867 295.166 23.28C291.646 27.1733 289.886 32.6667 289.886 39.76C289.886 47.2267 291.539 52.72 294.846 56.24C298.206 59.76 303.646 61.52 311.166 61.52C312.286 61.52 313.512 61.44 314.846 61.28C316.232 61.12 317.592 60.88 318.926 60.56C320.312 60.1867 321.619 59.76 322.846 59.28C324.126 58.7467 325.246 58.16 326.206 57.52C326.632 57.2533 326.926 56.9867 327.086 56.72C327.246 56.4533 327.219 56.0533 327.006 55.52L324.046 48.24C323.832 47.8133 323.592 47.5467 323.326 47.44C323.059 47.3333 322.552 47.4133 321.806 47.68C320.206 48.2133 318.632 48.64 317.086 48.96C315.592 49.2267 314.152 49.36 312.766 49.36C311.646 49.36 310.632 49.3067 309.726 49.2C308.819 49.04 308.019 48.7467 307.326 48.32C306.686 47.8933 306.179 47.3067 305.806 46.56C305.432 45.76 305.219 44.7467 305.166 43.52H324.606C326.632 43.52 328.046 42.96 328.846 41.84C329.646 40.72 330.046 38.7733 330.046 36C330.046 29.8133 328.392 25.1733 325.086 22.08ZM307.246 30.72C308.419 29.76 309.672 29.28 311.006 29.28C312.872 29.28 314.126 29.84 314.766 30.96C315.459 32.0267 315.859 33.4133 315.966 35.12H305.246C305.459 33.0933 306.126 31.6267 307.246 30.72Z" fill="#F83B6C"/>
<path d="M82 29.0399C81.52 29.0399 80.8533 29.0666 80 29.1199C79.1467 29.1733 78.3733 29.2533 77.68 29.3599V59.0399C77.68 59.6799 77.5733 60.1066 77.36 60.3199C77.2 60.5333 76.6667 60.6399 75.76 60.6399H65.12C63.8933 60.6399 63.28 60.1066 63.28 59.0399V24.7199C63.28 23.0133 63.5467 21.6533 64.08 20.6399C64.6133 19.5733 65.8133 18.8266 67.68 18.3999C68.2133 18.2933 69.0133 18.1866 70.08 18.0799C71.1467 17.9199 72.2933 17.8133 73.52 17.7599C74.8 17.6533 76.08 17.5733 77.36 17.5199C78.64 17.4666 79.7333 17.4399 80.64 17.4399C84.5333 17.4399 87.9467 17.8133 90.88 18.5599C93.8133 19.2533 96.24 20.4533 98.16 22.1599C100.133 23.8133 101.6 25.9999 102.56 28.7199C103.52 31.3866 104 34.6666 104 38.5599V59.0399C104 59.6799 103.893 60.1066 103.68 60.3199C103.52 60.5333 102.987 60.6399 102.08 60.6399H91.28C90.0533 60.6399 89.44 60.1066 89.44 59.0399V37.1999C89.44 34.4799 88.9067 32.4533 87.84 31.1199C86.8267 29.7333 84.88 29.0399 82 29.0399Z" fill="#F83B6C"/>
<path d="M48.9094 54.0252C53.4771 48.8953 55.761 41.7627 55.761 32.6273C55.761 23.6324 53.4068 16.5701 48.6986 11.4402C44.0607 6.24008 37.1037 3.64001 27.8278 3.64001C23.2601 3.64001 19.2194 4.34274 15.7058 5.74818C12.2625 7.08335 9.38133 9.01583 7.06235 11.5456C4.74337 14.0754 2.98657 17.1323 1.79194 20.7162C0.597313 24.3 0 28.3055 0 32.7327C0 37.1598 0.491905 41.1654 1.47572 44.7492C2.5298 48.3331 4.14606 51.39 6.3245 53.9198C8.5732 56.3793 11.4544 58.3118 14.968 59.7172C18.4816 61.0524 22.733 61.72 27.7224 61.72C37.2794 61.72 44.3417 59.155 48.9094 54.0252Z" fill="#F83B6C"/>
<path fill-rule="evenodd" clip-rule="evenodd" d="M10.7119 45.1774C10.7119 45.1774 10.4134 45.2401 10.2903 45.0795C10.1719 44.9439 10.3883 44.6192 10.3883 44.6192L10.6845 44.2592L17.9631 35.446V27.6867C17.9836 24.6757 18.8962 22.3926 20.703 20.8455C22.4973 19.3019 25.0572 18.5238 28.3724 18.5238C30.2521 18.5238 31.8812 18.7573 33.2688 19.2301L38.2029 17.0496C38.2029 17.0496 38.4797 16.9288 38.6233 17.0553C38.7725 17.1681 38.6233 17.5326 38.6233 17.5326L36.9554 21.6384C38.2314 23.1354 38.875 25.1519 38.8841 27.6867V36.6468C38.875 39.6635 37.9659 41.9431 36.1784 43.4914C35.7216 43.8855 35.2055 44.2319 34.6382 44.536L18.8062 54.7938C18.8062 54.7938 18.6957 54.8143 18.5772 54.7938C18.5157 54.7847 18.4439 54.7619 18.3903 54.6958C18.2719 54.5568 18.4929 54.2355 18.4929 54.2355L19.6173 52.5552L24.1743 45.7596C24.1743 45.7596 24.3269 45.3347 24.0501 45.19C23.7949 45.051 23.5819 45.2241 23.5819 45.2241L16.5926 49.7561L10.983 53.3891C10.983 53.3891 10.5831 53.4745 10.4134 53.2615C10.2584 53.0769 10.5512 52.6338 10.5512 52.6338L14.3973 47.6564L18.952 41.7597C18.952 41.7597 19.3165 41.2744 18.9714 40.9543C18.6911 40.6888 18.2832 40.8666 18.2832 40.8666L11.327 44.8243L10.7119 45.1774ZM30.9563 23.6107C30.1673 23.6107 29.5278 22.9688 29.5278 22.1798C29.5278 21.3883 30.1673 20.7513 30.9563 20.7513C31.743 20.7513 32.38 21.3883 32.38 22.1798C32.38 22.9688 31.743 23.6107 30.9563 23.6107Z" fill="white"/>
</g>
<defs>
<clipPath id="clip0_1_982">
<rect width="330" height="61.7114" fill="white"/>
</clipPath>
</defs>
</svg>
