<svg width="29" height="38" viewBox="0 0 29 38" fill="none" xmlns="http://www.w3.org/2000/svg">
<path fill-rule="evenodd" clip-rule="evenodd" d="M0.713449 28.1835C0.713449 28.1835 0.41493 28.2462 0.291876 28.0855C0.173378 27.9499 0.38986 27.6252 0.38986 27.6252L0.68611 27.2652L7.96573 18.4508V10.6903C7.98624 7.6789 8.89889 5.39555 10.706 3.84824C12.5005 2.30436 15.0608 1.52615 18.3764 1.52615C20.2564 1.52615 21.8858 1.75972 23.2735 2.23257L28.2083 0.0517693C28.2083 0.0517693 28.4852 -0.0690117 28.6287 0.0574608C28.778 0.170261 28.6287 0.534874 28.6287 0.534874L26.9606 4.64127C28.2368 6.13844 28.8805 8.15517 28.8896 10.6903V19.6517C28.8805 22.6688 27.9713 24.9488 26.1836 26.4972C25.7267 26.8914 25.2105 27.2378 24.6431 27.542L8.80888 37.8012C8.80888 37.8012 8.69836 37.8217 8.57986 37.8012C8.51833 37.7921 8.44655 37.7693 8.393 37.7032C8.2745 37.5642 8.49555 37.2429 8.49555 37.2429L9.62013 35.5623L14.1777 28.7658C14.1777 28.7658 14.3304 28.3408 14.0535 28.1961C13.7983 28.057 13.5852 28.2302 13.5852 28.2302L6.59503 32.7628L0.984632 36.3963C0.984632 36.3963 0.584702 36.4818 0.41493 36.2687C0.259972 36.0841 0.552797 35.6409 0.552797 35.6409L4.39941 30.6629L8.95473 24.7653C8.95473 24.7653 9.31933 24.2799 8.97409 23.9598C8.6938 23.6943 8.28589 23.872 8.28589 23.872L1.32873 27.8303L0.713449 28.1835ZM20.9609 6.61376C20.1719 6.61376 19.5324 5.97191 19.5324 5.18286C19.5324 4.39139 20.1719 3.75436 20.9609 3.75436C21.7475 3.75436 22.3846 4.39139 22.3846 5.18286C22.3846 5.97191 21.7475 6.61376 20.9609 6.61376Z" fill="white"/>
</svg>
